PathFileType	4	(X/Y/Z)	D:\TRACE\v60_Jaco2_6-2-23\BothDRS_Motion2_8-v60.trc
DataRate	CameraRate	NumFrames	NumMarkers	Units	OrigDataRate	OrigDataStartFrame	OrigNumFrames
100.00	100.00	      35	9	mm	100.00	1	      7500
Frame#	Time	front left toe			Front right toe			aft left toe			aft right toe			Arm			FL body			FR body			AL Body			AR Body			
		X1	Y1	Z1	X2	Y2	Z2	X3	Y3	Z3	X4	Y4	Z4	X5	Y5	Z5	X6	Y6	Z6	X7	Y7	Z7	X8	Y8	Z8	X9	Y9	Z9	

1	0.000	-239.49013	18.81172	-258.08499	171.55730	18.65209	-273.76721	-229.92937	13.88547	372.04633	172.95383	18.77281	347.58371	-26.40817	1207.46545	-292.12842	-119.41068	576.90796	-397.79263	40.85806	576.24323	-401.21701	-102.29110	579.91779	547.98029	53.99377	573.75964	545.90704	
2	0.010	-239.45222	18.83554	-258.06705	171.52414	18.68573	-273.76169	-229.92419	13.89594	372.07971	172.92014	18.80659	347.58441	-26.41734	1207.46838	-292.10056	-119.41059	576.87915	-397.79932	40.88530	576.24249	-401.20255	-102.32552	579.93219	547.95081	53.97396	573.76788	545.92157	
3	0.020	-239.45874	18.79121	-258.07278	171.57033	18.68550	-273.76819	-229.92630	13.89988	372.06845	172.91702	18.78522	347.57874	-26.47688	1207.47278	-292.10095	-119.38993	576.87134	-397.80136	40.82661	576.23444	-401.19650	-102.29117	579.96088	547.97388	53.96632	573.76898	545.91980	
4	0.030	-239.48224	18.81076	-258.10959	171.56035	18.68796	-273.76804	-229.95688	13.94132	372.01443	172.96581	18.82323	347.59973	-26.46529	1207.47705	-292.05334	-119.34873	576.86908	-397.80240	40.31442	576.22931	-400.92273	-102.31179	579.93762	547.95203	53.99668	573.77783	545.93274	
5	0.040	-239.47992	18.78943	-258.08374	171.49905	18.67025	-273.77042	-229.92746	13.88297	372.05746	172.93874	18.78783	347.59128	-26.49216	1207.42468	-292.05545	-119.41885	576.87360	-397.80051	40.88762	576.22559	-401.17957	-102.28329	579.90649	547.92743	53.98327	573.77386	545.93506	
6	0.050	-239.53195	18.80416	-258.08673	171.54391	18.64749	-273.73071	-230.04103	13.93612	372.04700	172.95100	18.78687	347.61850	-26.48232	1207.42908	-292.05984	-119.37905	576.88397	-397.79858	40.83098	576.24945	-401.20883	-102.32459	579.90259	547.94653	53.99901	573.77258	545.91534	
7	0.060	-239.50478	18.81759	-258.05402	171.52177	18.65439	-273.76721	-229.89659	13.87933	372.09094	172.93132	18.77194	347.58316	-26.46967	1207.44092	-292.07858	-119.43774	576.88220	-397.79828	40.81086	576.24683	-401.20993	-102.30102	579.90674	547.96417	54.02050	573.75598	545.92041	
8	0.070	-239.46584	18.86045	-258.04324	171.55492	18.66130	-273.76871	-229.94933	13.90462	372.06479	172.94328	18.83797	347.62189	-26.46226	1207.44836	-292.08447	-119.42762	576.89166	-397.79620	40.78480	576.24976	-401.23691	-102.31725	579.91553	547.94861	54.02345	573.76147	545.92346	
9	0.080	-239.41400	18.80346	-258.05670	171.58583	18.67061	-273.74835	-229.93533	13.91147	372.06522	172.96326	18.81085	347.60010	-26.47911	1207.44324	-292.10822	-119.36492	576.89099	-397.79712	40.30688	576.23096	-400.92807	-102.29803	579.90137	547.93298	53.98316	573.75116	545.93042	
10	0.090	-239.49495	18.78829	-258.06985	171.53168	18.64893	-273.74738	-229.94589	13.89274	372.02261	172.90804	18.79836	347.61868	-26.47749	1207.42456	-292.07452	-119.41879	576.90112	-397.79410	40.81309	576.23169	-401.21448	-102.30202	579.93158	547.95294	53.97756	573.75519	545.93011	
11	0.100	-239.47775	18.80922	-258.06723	171.53282	18.65276	-273.75916	-229.96082	13.90634	372.04721	172.93062	18.77718	347.57254	-26.41571	1207.43774	-292.10513	-119.33140	576.84601	-397.80798	40.28095	576.22504	-400.98990	-102.25587	579.89294	547.97198	54.00143	573.75494	545.93384	
12	0.110	-239.46703	18.82377	-258.01938	171.55055	18.66738	-273.77109	-229.95425	13.92237	372.03174	172.92184	18.78686	347.60480	-26.49916	1207.45984	-292.08511	-119.38413	576.89203	-397.79666	40.31583	576.24469	-400.93680	-102.30656	579.94318	547.96161	53.99087	573.76007	545.94690	
13	0.120	-239.46184	18.80795	-258.08102	171.54897	18.67434	-273.77231	-229.91447	13.86554	372.05704	172.97139	18.79053	347.60712	-26.52437	1207.44153	-292.09241	-119.40919	576.87018	-397.80142	40.82617	576.26758	-401.21326	-102.33651	579.93097	547.92395	54.01474	573.73895	545.94165	
14	0.130	-239.47450	18.81047	-258.09131	171.53668	18.67694	-273.76761	-229.89391	13.88831	372.01263	172.93263	18.76877	347.57779	-26.44055	1207.51135	-292.13138	-119.41399	576.89386	-397.79587	40.86567	576.23065	-401.19482	-102.30981	579.94183	547.90338	54.01635	573.77185	545.90942	
15	0.140	-239.42227	18.79485	-258.06665	171.58382	18.68399	-273.75809	-229.91304	13.89138	372.05725	172.98186	18.81656	347.61124	-26.52375	1207.46008	-292.08350	-119.39913	576.92175	-397.80923	40.86074	576.21240	-401.17548	-102.30024	579.93073	547.93872	53.98658	573.76007	545.92291	
16	0.150	-239.49782	18.81336	-258.05151	171.52225	18.65298	-273.76440	-229.95238	13.91113	372.04300	172.92653	18.78868	347.57895	-26.43789	1207.42615	-292.12918	-119.41048	576.87799	-397.79959	40.84156	576.22827	-401.18408	-102.30160	579.90588	547.93390	53.97195	573.76715	545.92432	
17	0.160	-239.49831	18.82433	-258.08438	171.54507	18.65552	-273.76199	-229.94595	13.89633	372.05426	172.95805	18.80904	347.57913	-26.40736	1207.43774	-292.10571	-119.39713	576.88934	-397.79712	40.87825	576.24463	-401.20364	-102.30825	579.89075	547.96191	54.00989	573.76190	545.90686	
18	0.170	-239.50606	18.82322	-258.03131	171.54048	18.67463	-273.72800	-229.91901	13.90098	372.06241	172.89111	18.79568	347.54224	-26.50204	1207.41162	-292.05542	-119.38820	576.88202	-397.79892	40.85896	576.21942	-401.19409	-102.28834	579.90662	547.97375	53.99142	573.75653	545.91638	
19	0.180	-239.43932	18.80761	-258.03311	171.54172	18.64688	-273.75732	-229.92168	13.90379	372.00958	172.94232	18.79110	347.54755	-26.46931	1207.44775	-292.07660	-119.39767	576.89606	-397.79556	40.88314	576.23743	-401.17883	-102.32867	579.93494	547.90924	54.01928	573.75433	545.93463	
20	0.190	-239.43941	18.81796	-258.09177	171.53014	18.67603	-273.74402	-229.94849	13.90663	371.99677	172.89693	18.76592	347.58716	-26.45116	1207.48328	-292.07101	-119.41872	576.87177	-397.80093	40.80850	576.22742	-401.19229	-102.32644	579.93127	547.92487	53.99939	573.74353	545.94189	
21	0.200	-239.44070	18.79268	-258.04333	171.55933	18.65250	-273.75342	-229.98903	13.93656	372.05530	172.97833	18.77791	347.59470	-26.49125	1207.46338	-292.06943	-119.42987	576.89191	-397.79611	40.27661	576.20392	-400.93311	-102.29131	579.90863	547.93713	54.00828	573.74615	545.90552	
22	0.210	-239.50575	18.81127	-258.07965	171.52045	18.65336	-273.75131	-229.96309	13.90550	372.05063	172.90688	18.77524	347.60275	-26.47199	1207.42261	-292.08759	-119.36678	576.87854	-397.79999	40.80360	576.24023	-401.23627	-102.32088	579.88440	547.94653	53.99415	573.75134	545.91925	
23	0.220	-239.43594	18.78490	-258.09039	171.55096	18.67292	-273.75229	-229.93649	13.88254	372.03696	172.96759	18.82311	347.61346	-26.51672	1207.44458	-292.07730	-119.40803	576.87738	-397.79974	40.27219	576.21991	-400.96014	-102.27048	579.88416	547.97809	54.01511	573.71991	545.92273	
24	0.230	-239.47449	18.82290	-258.05759	171.52618	18.66911	-273.76624	-229.88315	13.86677	372.05859	172.94727	18.83600	347.62115	-26.53239	1207.47888	-292.07141	-119.35013	576.86896	-397.80243	40.86702	576.25806	-401.20999	-102.29458	579.92395	547.96960	54.00690	573.73950	545.91760	
25	0.240	-239.45148	18.76563	-258.08109	171.58925	18.69668	-273.74490	-229.92204	13.89029	372.03860	172.90096	18.78692	347.58737	-26.46250	1207.51611	-292.07581	-119.38438	576.89136	-397.79681	40.79300	576.25378	-401.25232	-102.29291	579.92377	547.95563	54.02263	573.73737	545.92169	
26	0.250	-239.46393	18.84544	-258.05148	171.53912	18.67136	-273.75705	-229.93365	13.90439	372.07254	172.96523	18.87409	347.62024	-26.45994	1207.48438	-292.07004	-119.39973	576.88275	-397.79861	40.85768	576.22650	-401.18619	-102.29575	579.93445	547.98114	54.02117	573.74615	545.93280	
27	0.260	-239.47600	18.82130	-258.07285	171.55379	18.66916	-273.76263	-229.94838	13.90284	372.04898	172.92207	18.78302	347.61444	-26.42481	1207.45386	-292.05603	-119.38720	576.87372	-397.80087	40.90635	576.24536	-401.16202	-102.31105	579.89050	547.92072	54.00308	573.76257	545.90656	
28	0.270	-239.46120	18.77527	-258.07599	171.55414	18.67373	-273.73285	-229.93172	13.89621	372.07675	172.94246	18.76462	347.60086	-26.49984	1207.47144	-292.07712	-119.36600	576.85980	-397.80435	40.82666	576.24512	-401.21899	-102.30917	579.91327	547.98138	54.03481	573.74365	545.94702	
29	0.280	-239.51613	18.83903	-258.07309	171.55214	18.66671	-273.74789	-229.96965	13.91149	372.03824	172.90944	18.76974	347.60770	-26.45478	1207.47314	-292.13159	-119.40485	576.86920	-397.80170	40.78836	576.25781	-401.20966	-102.27822	579.91406	547.97382	53.99048	573.76306	545.93225	
30	0.290	-239.47102	18.78319	-258.07550	171.58624	18.64415	-273.74115	-229.96495	13.92800	372.01492	172.95573	18.76923	347.57974	-26.48262	1207.45044	-292.08438	-119.38680	576.87543	-397.80048	40.80429	576.24194	-401.22452	-102.25877	579.90942	547.94427	54.02317	573.73444	545.92694	
31	0.300	-239.50285	18.80607	-258.07413	171.53038	18.65096	-273.75476	-230.01848	13.94152	372.05151	172.93137	18.73991	347.55792	-26.62922	1207.49072	-292.08423	-119.34921	576.86462	-397.80344	40.73834	576.27832	-401.22766	-102.33479	579.90155	547.94775	53.99844	573.76074	545.93085	
32	0.310	-239.46754	18.82188	-258.06271	171.53642	18.66495	-273.76276	-229.90674	13.89304	372.05695	172.93661	18.79825	347.57394	-26.48847	1207.46753	-292.08768	-119.38920	576.88910	-397.79727	40.84413	576.23987	-401.19592	-102.30357	579.91766	547.95575	53.99072	573.77838	545.93298	
33	0.320	-239.48068	18.78916	-258.07361	171.52222	18.66994	-273.75943	-229.96901	13.91235	372.04761	172.93262	18.83093	347.57581	-26.49038	1207.46985	-292.05972	-119.40305	576.88379	-397.79834	40.82470	576.24182	-401.21942	-102.30497	579.89148	547.94403	53.98875	573.75470	545.93689	
34	0.330	-239.46693	18.81626	-258.09198	171.53445	18.66322	-273.74911	-229.94476	13.89970	372.03159	172.97392	18.77576	347.60129	-26.42999	1207.43433	-292.16406	-119.39545	576.88202	-397.79883	40.80640	576.24780	-401.20352	-102.32207	579.89716	547.95319	54.00112	573.74994	545.92358	
35	0.340	-239.48929	18.80124	-258.07684	171.54967	18.67029	-273.73785	-229.99713	13.92819	372.03775	172.89566	18.76082	347.57449	-26.48077	1207.42810	-292.06351	-119.39453	576.87476	-397.80054	40.78222	576.24664	-401.20264	-102.25941	579.91675	547.95898	54.01041	573.75543	545.92853	
